<mxfile host="app.diagrams.net" modified="2022-03-30T05:52:13.816Z" agent="5.0 (Windows NT 10.0; Win64; x64) AppleWebKit/537.36 (KHTML, like Gecko) Chrome/80.0.3987.100 Safari/537.36" etag="VKd2ExcEYztUw8bFDTtL" version="17.1.3" type="github">
  <diagram id="dfmCD3b6rdWsi1CAhROA" name="Page-1">
    <mxGraphModel dx="1146" dy="656" grid="1" gridSize="10" guides="1" tooltips="1" connect="1" arrows="1" fold="1" page="1" pageScale="1" pageWidth="827" pageHeight="1169" math="0" shadow="0">
      <root>
        <mxCell id="0" />
        <mxCell id="1" parent="0" />
        <mxCell id="zZoCzMxBMsAC2dhJa8Dx-1" value="" style="rounded=0;whiteSpace=wrap;html=1;fillColor=#fff2cc;strokeColor=#d6b656;comic=1;" vertex="1" parent="1">
          <mxGeometry x="110" y="390" width="120" height="60" as="geometry" />
        </mxCell>
        <mxCell id="zZoCzMxBMsAC2dhJa8Dx-2" value="" style="rounded=1;whiteSpace=wrap;html=1;comic=1;" vertex="1" parent="1">
          <mxGeometry x="110" y="460" width="120" height="60" as="geometry" />
        </mxCell>
      </root>
    </mxGraphModel>
  </diagram>
</mxfile>
